<svg width="25" height="23" fill="none" xmlns="http://www.w3.org/2000/svg"><path d="M20.867 12.537a.38.38 0 0 0-.18-.047.48.48 0 0 0-.347.153l-.963.963c-.09.09-.137.2-.137.332v3.817a2.33 2.33 0 0 1-.706 1.701 2.322 2.322 0 0 1-1.7.706H4.327a2.33 2.33 0 0 1-1.7-.706 2.322 2.322 0 0 1-.706-1.7V5.244c0-.664.237-1.227.705-1.701a2.322 2.322 0 0 1 1.701-.706h12.505c.222 0 .448.032.674.09a.441.441 0 0 0 .137.032.46.46 0 0 0 .348-.153l.737-.737a.476.476 0 0 0 .137-.437.476.476 0 0 0-.269-.348A4.102 4.102 0 0 0 16.84.911H4.329c-1.196 0-2.212.422-3.06 1.27C.421 3.032 0 4.054 0 5.244V17.75c0 1.19.421 2.211 1.269 3.06.848.847 1.87 1.268 3.06 1.268h12.504c1.19 0 2.212-.421 3.06-1.269.847-.848 1.268-1.869 1.268-3.059v-4.781c.006-.205-.094-.353-.294-.432z" fill="#E80000"/><path d="M24.642 3.907l-1.653-1.653a1.17 1.17 0 0 0-.859-.363c-.331 0-.616.12-.858.363l-9.725 9.725-3.954-3.954a1.17 1.17 0 0 0-.859-.363 1.17 1.17 0 0 0-.858.363L4.223 9.678a1.17 1.17 0 0 0-.363.858c0 .332.12.617.363.859l6.466 6.466c.242.242.526.363.858.363.332 0 .616-.121.858-.363L24.642 5.624a1.17 1.17 0 0 0 .363-.858c0-.332-.126-.616-.363-.859z" fill="#E80000"/></svg>