<?xml version="1.0" encoding="utf-8"?>
<!-- Generator: Adobe Illustrator 21.0.0, SVG Export Plug-In . SVG Version: 6.00 Build 0)  -->
<svg fill='#0f75bc' version="1.1" id="Слой_1" xmlns="http://www.w3.org/2000/svg" xmlns:xlink="http://www.w3.org/1999/xlink" x="0px" y="0px"
	 viewBox="0 0 22 19" style="enable-background:new 0 0 22 19;" xml:space="preserve">
<style type="text/css">
	.st0{fill:#0f75bc;}
</style>
<path class="st0" d="M22,1c0-0.5-0.4-1-1-1H2C1.4,0,1,0.4,1,1c0,0.3,0.1,0.5,0.3,0.7c0,0.1,0,0.1,0.1,0.2l7.3,6.4l2.3,10.3
	c0.1,0.2,0.4,0.4,0.9,0.3c0.4,0.1,0.8-0.1,1-0.5l9-16.7c0-0.1,0.1-0.1,0.1-0.2C22,1.3,22,1.2,22,1z M9.6,6.5L4.5,2h12.9L9.6,6.5z
	 M10.6,8.2l7.8-4.5l-6.3,11.7L10.6,8.2z"/>
</svg>
