<?xml version="1.0" encoding="utf-8"?>
<!-- Generator: Adobe Illustrator 21.0.0, SVG Export Plug-In . SVG Version: 6.00 Build 0)  -->
<svg version="1.1" id="Social_Icons" xmlns="http://www.w3.org/2000/svg" xmlns:xlink="http://www.w3.org/1999/xlink" x="0px"
	 y="0px" viewBox="0 0 128 128" style="enable-background:new 0 0 128 128;" xml:space="preserve">
<style type="text/css">
	.st0{fill:none;}
	.st1{fill:#7F4DA0;}
</style>
<g id="_x34__stroke">
	<g id="Viber_1_">
		<rect y="0" class="st0" width="128" height="128"/>
		<path class="st1" d="M64,0C28.7,0,0,28.7,0,64s28.7,64,64,64s64-28.7,64-64S99.3,0,64,0z M61.2,26.4c0.6-0.5,1-0.6,3.1-0.6
			c1.1,0,2.7,0.2,3.5,0.3c4.4,0.5,7.9,1.6,11.7,3.5c3.8,1.9,6.2,3.6,9.4,6.8c3,3,4.7,5.3,6.5,8.9c2.5,5,3.9,10.8,4.1,17.3
			c0.1,2.2,0,2.7-0.5,3.3c-1,1.2-3.1,1-3.8-0.4c-0.2-0.5-0.3-0.8-0.4-2.6c-0.1-2.7-0.3-4.5-0.7-6.6c-1.5-8.2-5.4-14.8-11.7-19.5
			c-5.3-3.9-10.7-5.9-17.8-6.3c-2.4-0.1-2.8-0.2-3.4-0.6C60.3,29.1,60.3,27.2,61.2,26.4z M76.3,42.6c-2.5-1.5-6.3-2.6-9.7-2.9
			c-1.2-0.1-1.9-0.4-2.4-0.9C63.5,38,63.4,36.9,64,36c0.7-1,1.7-1.2,4.7-0.7c7.7,1.1,13.6,4.7,17.5,10.5c2.2,3.3,3.6,7.1,4,11.2
			c0.2,1.5,0.2,4.2,0,4.7c-0.2,0.4-0.7,1-1.2,1.3c-0.5,0.3-1.5,0.2-2.1-0.1c-1-0.5-1.3-1.3-1.3-3.4c0-3.3-0.8-6.7-2.3-9.4
			C81.7,46.9,79.3,44.4,76.3,42.6z M80.6,59.5c-0.7,0.7-2.1,0.7-3,0.1c-0.6-0.5-0.8-0.9-0.9-2.2c-0.2-1.7-0.5-2.9-1-4.1
			c-1.1-2.4-3.1-3.6-6.4-4c-1.6-0.2-2-0.4-2.5-1c-0.9-1.1-0.6-2.9,0.7-3.5c0.5-0.2,0.7-0.3,1.7-0.2c0.7,0,1.6,0.2,2.2,0.3
			c2.5,0.5,4.4,1.5,6,3c2.1,2,3.3,4.4,3.8,7.8C81.5,57.8,81.4,58.7,80.6,59.5z M99.5,92.6c-0.9,2.4-4.6,6.9-7.1,8.9
			c-2.3,1.7-3.9,2.4-6.1,2.5c-1.8,0.1-2.5-0.1-4.8-1c-17.8-7.3-31.9-18.2-43.2-33.2C32.4,62,28,53.9,24.9,45.4
			c-1.8-4.9-1.9-7-0.4-9.6c0.6-1.1,3.3-3.7,5.3-5.2c3.3-2.4,4.8-3.3,6-3.6c0.8-0.2,2.3,0,3.2,0.3c0.4,0.2,1.1,0.5,1.5,0.8
			c2.4,1.6,9.1,10.1,11.3,14.4c1.3,2.4,1.7,4.2,1.3,5.6c-0.4,1.4-1.1,2.2-4.1,4.6c-1.2,1-2.3,2-2.5,2.2c-0.5,0.7-0.8,1.9-0.8,2.9
			c0,2.1,1.4,5.9,3.2,8.9c1.4,2.3,3.9,5.2,6.4,7.5c2.9,2.7,5.5,4.5,8.3,5.9c3.7,1.8,6,2.3,7.6,1.5l3.2-3.2c2-2.6,2.5-3,3.9-3.5
			c1.8-0.6,3.6-0.4,5.4,0.5c1.4,0.7,4.4,2.6,6.4,4c2.6,1.8,8.1,6.3,8.8,7.2C100.2,88.3,100.4,90.4,99.5,92.6z"/>
	</g>
</g>
</svg>
