<svg xmlns="http://www.w3.org/2000/svg" viewBox="0 0 128 128"><path fill="none" d="M0 0h128v128H0z"/><path d="M64 0C28.7 0 0 28.7 0 64s28.7 64 64 64 64-28.7 64-64S99.3 0 64 0zm-2.8 26.4c.6-.5 1-.6 3.1-.6 1.1 0 2.7.2 3.5.3 4.4.5 7.9 1.6 11.7 3.5 3.8 1.9 6.2 3.6 9.4 6.8 3 3 4.7 5.3 6.5 8.9 2.5 5 3.9 10.8 4.1 17.3.1 2.2 0 2.7-.5 3.3-1 1.2-3.1 1-3.8-.4-.2-.5-.3-.8-.4-2.6-.1-2.7-.3-4.5-.7-6.6-1.5-8.2-5.4-14.8-11.7-19.5-5.3-3.9-10.7-5.9-17.8-6.3-2.4-.1-2.8-.2-3.4-.6-.9-.8-.9-2.7 0-3.5zm15.1 16.2c-2.5-1.5-6.3-2.6-9.7-2.9-1.2-.1-1.9-.4-2.4-.9-.7-.8-.8-1.9-.2-2.8.7-1 1.7-1.2 4.7-.7 7.7 1.1 13.6 4.7 17.5 10.5 2.2 3.3 3.6 7.1 4 11.2.2 1.5.2 4.2 0 4.7-.2.4-.7 1-1.2 1.3-.5.3-1.5.2-2.1-.1-1-.5-1.3-1.3-1.3-3.4 0-3.3-.8-6.7-2.3-9.4-1.6-3.2-4-5.7-7-7.5zm4.3 16.9c-.7.7-2.1.7-3 .1-.6-.5-.8-.9-.9-2.2-.2-1.7-.5-2.9-1-4.1-1.1-2.4-3.1-3.6-6.4-4-1.6-.2-2-.4-2.5-1-.9-1.1-.6-2.9.7-3.5.5-.2.7-.3 1.7-.2.7 0 1.6.2 2.2.3 2.5.5 4.4 1.5 6 3 2.1 2 3.3 4.4 3.8 7.8.3 2.1.2 3-.6 3.8zm18.9 33.1c-.9 2.4-4.6 6.9-7.1 8.9-2.3 1.7-3.9 2.4-6.1 2.5-1.8.1-2.5-.1-4.8-1-17.8-7.3-31.9-18.2-43.2-33.2C32.4 62 28 53.9 24.9 45.4c-1.8-4.9-1.9-7-.4-9.6.6-1.1 3.3-3.7 5.3-5.2 3.3-2.4 4.8-3.3 6-3.6.8-.2 2.3 0 3.2.3.4.2 1.1.5 1.5.8 2.4 1.6 9.1 10.1 11.3 14.4 1.3 2.4 1.7 4.2 1.3 5.6-.4 1.4-1.1 2.2-4.1 4.6-1.2 1-2.3 2-2.5 2.2-.5.7-.8 1.9-.8 2.9 0 2.1 1.4 5.9 3.2 8.9 1.4 2.3 3.9 5.2 6.4 7.5 2.9 2.7 5.5 4.5 8.3 5.9 3.7 1.8 6 2.3 7.6 1.5l3.2-3.2c2-2.6 2.5-3 3.9-3.5 1.8-.6 3.6-.4 5.4.5 1.4.7 4.4 2.6 6.4 4 2.6 1.8 8.1 6.3 8.8 7.2 1.3 1.7 1.5 3.8.6 6z" fill="#7f4da0"/></svg>