<svg xmlns="http://www.w3.org/2000/svg" viewBox="0 0 512 512"><path d="M256.1 16.8h-.1C124.4 16.8 17.4 124.1 17.4 256c0 52.3 16.8 100.8 45.4 140.2l-29.7 88.9 91.7-29.4c37.7 25.1 82.7 39.5 131.3 39.5 131.6 0 238.5-107.3 238.5-239.3 0-131.8-107-239.1-238.5-239.1z" fill="#5acf5f"/><path d="M394.9 354.6c-5.8 16.3-28.6 29.8-46.8 33.8-12.5 2.7-28.8 4.8-83.6-18-70.1-29.1-115.3-100.6-118.8-105.2-3.4-4.6-28.3-37.8-28.3-72.2 0-34.3 17.4-51.1 24.4-58.2 5.8-5.9 15.3-8.6 24.4-8.6 3 0 5.6.1 8 .3 7 .3 10.5.7 15.2 11.8 5.8 13.9 19.8 48.2 21.4 51.8 1.7 3.5 3.4 8.3 1 12.9-2.2 4.8-4.2 6.9-7.7 11s-6.9 7.2-10.4 11.5c-3.2 3.8-6.9 7.9-2.8 14.9 4.1 6.9 18.1 29.8 38.7 48.2 26.6 23.8 48.2 31.4 56 34.6 5.8 2.4 12.6 1.8 16.8-2.7 5.3-5.8 11.9-15.3 18.6-24.8 4.8-6.8 10.8-7.6 17.1-5.2 6.4 2.2 40.5 19.1 47.5 22.6s11.6 5.2 13.3 8.2c1.8 3.1 1.8 17-4 33.3z" fill="#fcfcfc"/></svg>