<?xml version="1.0" encoding="utf-8"?>
<!-- Generator: Adobe Illustrator 21.0.0, SVG Export Plug-In . SVG Version: 6.00 Build 0)  -->
<svg version="1.1" id="Слой_1" xmlns="http://www.w3.org/2000/svg" xmlns:xlink="http://www.w3.org/1999/xlink" x="0px" y="0px"
	 viewBox="0 0 512 512" style="enable-background:new 0 0 512 512;" xml:space="preserve">
<style type="text/css">
	.st0{fill:#5ACF5F;}
	.st1{fill:#FCFCFC;}
</style>
<g id="_x31_3-whatsapp">
	<g>
		<g>
			<path class="st0" d="M256.1,16.8h-0.1C124.4,16.8,17.4,124.1,17.4,256c0,52.3,16.8,100.8,45.4,140.2l-29.7,88.9l91.7-29.4
				c37.7,25.1,82.7,39.5,131.3,39.5c131.6,0,238.5-107.3,238.5-239.3C494.6,124.1,387.6,16.8,256.1,16.8L256.1,16.8z"/>
			<path class="st1" d="M394.9,354.6c-5.8,16.3-28.6,29.8-46.8,33.8c-12.5,2.7-28.8,4.8-83.6-18c-70.1-29.1-115.3-100.6-118.8-105.2
				c-3.4-4.6-28.3-37.8-28.3-72.2c0-34.3,17.4-51.1,24.4-58.2c5.8-5.9,15.3-8.6,24.4-8.6c3,0,5.6,0.1,8,0.3
				c7,0.3,10.5,0.7,15.2,11.8c5.8,13.9,19.8,48.2,21.4,51.8c1.7,3.5,3.4,8.3,1,12.9c-2.2,4.8-4.2,6.9-7.7,11
				c-3.5,4.1-6.9,7.2-10.4,11.5c-3.2,3.8-6.9,7.9-2.8,14.9c4.1,6.9,18.1,29.8,38.7,48.2c26.6,23.8,48.2,31.4,56,34.6
				c5.8,2.4,12.6,1.8,16.8-2.7c5.3-5.8,11.9-15.3,18.6-24.8c4.8-6.8,10.8-7.6,17.1-5.2c6.4,2.2,40.5,19.1,47.5,22.6
				c7,3.5,11.6,5.2,13.3,8.2C400.7,324.4,400.7,338.3,394.9,354.6L394.9,354.6z"/>
		</g>
	</g>
</g>
<g id="Layer_1">
</g>
</svg>
